<svg width="32" height="32" viewBox="0 0 32 32" fill="none" xmlns="http://www.w3.org/2000/svg">
<path fill-rule="evenodd" clip-rule="evenodd" d="M2.6665 8.00002C2.6665 6.58553 3.22841 5.22898 4.2286 4.22878C5.2288 3.22859 6.58535 2.66669 7.99984 2.66669H23.9998C25.4143 2.66669 26.7709 3.22859 27.7711 4.22878C28.7713 5.22898 29.3332 6.58553 29.3332 8.00002V24C29.3332 25.4145 28.7713 26.7711 27.7711 27.7713C26.7709 28.7715 25.4143 29.3334 23.9998 29.3334H7.99984C6.58535 29.3334 5.2288 28.7715 4.2286 27.7713C3.22841 26.7711 2.6665 25.4145 2.6665 24V8.00002ZM7.99984 5.33335C7.29259 5.33335 6.61432 5.61431 6.11422 6.1144C5.61412 6.6145 5.33317 7.29278 5.33317 8.00002V24C5.33317 24.7073 5.61412 25.3855 6.11422 25.8856C6.61432 26.3857 7.29259 26.6667 7.99984 26.6667H23.9998C24.7071 26.6667 25.3854 26.3857 25.8855 25.8856C26.3856 25.3855 26.6665 24.7073 26.6665 24V8.00002C26.6665 7.29278 26.3856 6.6145 25.8855 6.1144C25.3854 5.61431 24.7071 5.33335 23.9998 5.33335H7.99984ZM15.9998 12C14.939 12 13.9216 12.4214 13.1714 13.1716C12.4213 13.9217 11.9998 14.9392 11.9998 16C11.9998 17.0609 12.4213 18.0783 13.1714 18.8284C13.9216 19.5786 14.939 20 15.9998 20C17.0607 20 18.0781 19.5786 18.8283 18.8284C19.5784 18.0783 19.9998 17.0609 19.9998 16C19.9998 14.9392 19.5784 13.9217 18.8283 13.1716C18.0781 12.4214 17.0607 12 15.9998 12ZM9.33317 16C9.33317 14.2319 10.0355 12.5362 11.2858 11.286C12.536 10.0357 14.2317 9.33335 15.9998 9.33335C17.7679 9.33335 19.4636 10.0357 20.7139 11.286C21.9641 12.5362 22.6665 14.2319 22.6665 16C22.6665 17.7681 21.9641 19.4638 20.7139 20.7141C19.4636 21.9643 17.7679 22.6667 15.9998 22.6667C14.2317 22.6667 12.536 21.9643 11.2858 20.7141C10.0355 19.4638 9.33317 17.7681 9.33317 16ZM23.3332 10.6667C23.8636 10.6667 24.3723 10.456 24.7474 10.0809C25.1225 9.70583 25.3332 9.19712 25.3332 8.66669C25.3332 8.13625 25.1225 7.62755 24.7474 7.25247C24.3723 6.8774 23.8636 6.66669 23.3332 6.66669C22.8027 6.66669 22.294 6.8774 21.919 7.25247C21.5439 7.62755 21.3332 8.13625 21.3332 8.66669C21.3332 9.19712 21.5439 9.70583 21.919 10.0809C22.294 10.456 22.8027 10.6667 23.3332 10.6667Z" fill="#5A352C"/>
</svg>
